<svg width="187" height="31" viewBox="0 0 187 31" fill="none" xmlns="http://www.w3.org/2000/svg">
<path d="M2.98023e-08 30.2V27.56C0.613334 27.5333 1.12 27.4533 1.52 27.32C1.94667 27.1866 2.26667 26.88 2.48 26.4C2.72 25.92 2.84 25.1466 2.84 24.08V8.75995C2.84 8.03995 2.85333 7.34662 2.88 6.67995C2.93333 6.01328 2.97333 5.50662 3 5.15995C2.57333 5.18662 2.04 5.21328 1.4 5.23995C0.76 5.23995 0.293333 5.25328 2.98023e-08 5.27995V2.19995C1.89333 2.17328 3.78667 2.15995 5.68 2.15995C7.57333 2.15995 9.46667 2.14662 11.36 2.11995C13.7067 2.09328 15.7467 2.35995 17.48 2.91995C19.2133 3.47995 20.5467 4.38662 21.48 5.63995C22.4133 6.89328 22.8533 8.58662 22.8 10.72C22.7733 11.84 22.4933 12.9066 21.96 13.92C21.4533 14.9333 20.68 15.8266 19.64 16.6C18.6267 17.3733 17.3333 17.9866 15.76 18.44C16.2667 18.6533 16.76 19 17.24 19.48C17.7467 19.96 18.1733 20.4666 18.52 21L20.4 23.8C20.9867 24.7066 21.5067 25.4266 21.96 25.96C22.4133 26.4933 22.8667 26.8933 23.32 27.16C23.7733 27.4 24.2933 27.5333 24.88 27.56V30.2H18.28C17.8 29.8533 17.32 29.36 16.84 28.72C16.3867 28.0533 15.8933 27.2933 15.36 26.44L12.4 21.64C12.0533 21.1066 11.7467 20.6533 11.48 20.28C11.24 19.9066 10.9867 19.5866 10.72 19.32C10.2933 19.32 9.93333 19.32 9.64 19.32C9.34667 19.32 9.01333 19.32 8.64 19.32V23.6C8.64 24.3466 8.62667 25.0533 8.6 25.72C8.57333 26.3866 8.53333 26.8933 8.48 27.24C8.77333 27.2133 9.14667 27.2 9.6 27.2C10.0533 27.1733 10.4933 27.16 10.92 27.16C11.3733 27.1333 11.6933 27.12 11.88 27.12V30.2H2.98023e-08ZM10.56 16.44C12.0533 16.44 13.2533 16.2266 14.16 15.8C15.0667 15.3466 15.72 14.68 16.12 13.8C16.5467 12.8933 16.76 11.7599 16.76 10.3999C16.76 9.11995 16.56 8.11995 16.16 7.39995C15.76 6.65328 15.2533 6.10662 14.64 5.75995C14.0533 5.38662 13.4533 5.15995 12.84 5.07995C12.2267 4.97328 11.72 4.91995 11.32 4.91995C10.76 4.91995 10.28 4.98662 9.88 5.11995C9.48 5.25328 9.17333 5.54662 8.96 5.99995C8.74667 6.45328 8.64 7.14662 8.64 8.07995V16.28C8.93333 16.3066 9.24 16.3466 9.56 16.4C9.88 16.4266 10.2133 16.44 10.56 16.44ZM36.315 30.84C34.395 30.84 32.6617 30.4266 31.115 29.6C29.5683 28.7733 28.3417 27.6 27.435 26.08C26.555 24.5333 26.115 22.72 26.115 20.64C26.115 18.4266 26.5683 16.4933 27.475 14.84C28.4083 13.16 29.635 11.8666 31.155 10.9599C32.7017 10.0266 34.3817 9.55995 36.195 9.55995C38.115 9.55995 39.835 9.97328 41.355 10.8C42.875 11.6266 44.075 12.8133 44.955 14.36C45.835 15.88 46.275 17.7066 46.275 19.84C46.275 22.08 45.8483 24.0266 44.995 25.68C44.1417 27.3333 42.9683 28.6133 41.475 29.52C39.9817 30.4 38.2617 30.84 36.315 30.84ZM36.475 28C37.5417 27.9733 38.3417 27.6 38.875 26.88C39.435 26.16 39.8217 25.2533 40.035 24.16C40.2483 23.0666 40.355 21.96 40.355 20.84C40.355 19.8533 40.275 18.8533 40.115 17.84C39.9817 16.8266 39.755 15.9066 39.435 15.08C39.115 14.2533 38.675 13.5866 38.115 13.0799C37.5817 12.5733 36.915 12.3333 36.115 12.36C35.075 12.3866 34.2483 12.76 33.635 13.48C33.0483 14.2 32.6217 15.1066 32.355 16.2C32.115 17.2666 31.995 18.3866 31.995 19.56C31.995 20.92 32.1417 22.2533 32.435 23.56C32.7283 24.8666 33.195 25.9466 33.835 26.8C34.5017 27.6266 35.3817 28.0266 36.475 28ZM60.2913 30.2C60.2379 29.8266 60.1979 29.52 60.1713 29.28C60.1713 29.0133 60.1579 28.7066 60.1313 28.36C59.2246 29.2666 58.2646 29.9066 57.2513 30.28C56.2379 30.6533 55.2113 30.84 54.1713 30.84C52.4646 30.84 51.1313 30.3333 50.1712 29.32C49.2113 28.3066 48.7313 27.04 48.7313 25.52C48.7313 24.24 49.0513 23.1466 49.6913 22.24C50.3579 21.3333 51.2246 20.6 52.2913 20.04C53.3846 19.4533 54.5846 19.0133 55.8913 18.72C57.2246 18.4 58.5579 18.2133 59.8913 18.16V16.08C59.8913 15.3866 59.7979 14.76 59.6113 14.2C59.4513 13.64 59.1579 13.1999 58.7313 12.88C58.3313 12.56 57.7579 12.4133 57.0113 12.4399C56.5046 12.4666 56.0113 12.5733 55.5313 12.76C55.0513 12.9466 54.6379 13.2133 54.2913 13.56C54.5046 13.8 54.6379 14.0666 54.6913 14.36C54.7446 14.6266 54.7713 14.8666 54.7713 15.08C54.7713 15.6133 54.5579 16.1733 54.1313 16.76C53.7046 17.32 53.0246 17.5866 52.0913 17.56C51.2913 17.5333 50.6779 17.2533 50.2513 16.72C49.8246 16.1866 49.6113 15.56 49.6113 14.84C49.6113 13.7733 49.9846 12.8533 50.7313 12.08C51.5046 11.28 52.5313 10.6666 53.8113 10.24C55.0913 9.78662 56.5046 9.55995 58.0513 9.55995C60.3979 9.55995 62.2113 10.1733 63.4913 11.4C64.7979 12.6 65.4513 14.5333 65.4513 17.2C65.4513 18.1066 65.4513 18.88 65.4513 19.52C65.4513 20.16 65.4379 20.8 65.4113 21.44C65.4113 22.08 65.4113 22.8533 65.4113 23.76C65.4113 24.1333 65.3979 24.6666 65.3713 25.36C65.3446 26.0266 65.3046 26.6666 65.2513 27.28C65.7046 27.2266 66.1846 27.2 66.6913 27.2C67.1979 27.1733 67.5846 27.16 67.8513 27.16V30.2H60.2913ZM59.8513 21C59.1046 21.08 58.3979 21.2133 57.7313 21.4C57.0646 21.5866 56.4779 21.84 55.9713 22.16C55.4913 22.48 55.1046 22.8666 54.8113 23.32C54.5446 23.7733 54.4113 24.28 54.4113 24.84C54.4379 25.5866 54.6779 26.12 55.1313 26.44C55.5846 26.76 56.1046 26.92 56.6913 26.92C57.3046 26.92 57.8779 26.7866 58.4113 26.52C58.9446 26.2533 59.4246 25.9066 59.8513 25.48C59.8513 25.2133 59.8513 24.96 59.8513 24.72C59.8513 24.4533 59.8513 24.1866 59.8513 23.92C59.8513 23.44 59.8513 22.96 59.8513 22.48C59.8513 21.9733 59.8513 21.48 59.8513 21ZM77.8678 30.84C76.2678 30.84 74.8545 30.4266 73.6278 29.6C72.4278 28.7733 71.4811 27.6 70.7878 26.08C70.1211 24.56 69.7878 22.7733 69.7878 20.72C69.7878 18.56 70.2011 16.64 71.0278 14.96C71.8545 13.28 73.0145 11.9599 74.5078 11C76.0011 10.04 77.7345 9.55995 79.7078 9.55995C80.4278 9.55995 81.0678 9.63995 81.6278 9.79995C82.2145 9.93328 82.7611 10.0933 83.2678 10.28V7.63995C83.2678 7.26662 83.2811 6.73328 83.3078 6.03995C83.3345 5.34662 83.3745 4.70662 83.4278 4.11995C83.0011 4.14662 82.4945 4.17328 81.9078 4.19995C81.3211 4.22662 80.8811 4.23995 80.5878 4.23995V1.19995C81.8411 1.19995 82.8811 1.13328 83.7078 0.99995C84.5611 0.866617 85.2278 0.706617 85.7078 0.519949C86.2145 0.333284 86.5611 0.15995 86.7478 -5.10216e-05H88.9078V23.76C88.9078 24.1333 88.8945 24.6666 88.8678 25.36C88.8411 26.0266 88.8011 26.6666 88.7478 27.28C89.2011 27.2266 89.6811 27.2 90.1878 27.2C90.6945 27.1733 91.0811 27.16 91.3478 27.16V30.2H83.7478C83.7211 29.9066 83.6811 29.6 83.6278 29.28C83.6011 28.96 83.5611 28.6533 83.5078 28.36C82.6278 29.2666 81.7211 29.9066 80.7878 30.28C79.8545 30.6533 78.8811 30.84 77.8678 30.84ZM79.9478 27.2C80.6411 27.2 81.2811 27.0266 81.8678 26.68C82.4545 26.3066 82.9211 25.84 83.2678 25.28C83.2678 24.88 83.2678 24.48 83.2678 24.08C83.2678 23.68 83.2678 23.28 83.2678 22.88V13.28C83.0011 13.0666 82.6011 12.8933 82.0678 12.76C81.5345 12.6 80.9878 12.5199 80.4278 12.5199C79.2011 12.5466 78.2411 12.9333 77.5478 13.68C76.8545 14.4266 76.3611 15.3733 76.0678 16.52C75.8011 17.6666 75.6678 18.8666 75.6678 20.12C75.6678 21.24 75.8011 22.3466 76.0678 23.44C76.3611 24.5333 76.8145 25.44 77.4278 26.16C78.0678 26.8533 78.9078 27.2 79.9478 27.2ZM103.176 30.84C102.029 30.84 100.909 30.6933 99.8159 30.4C98.7226 30.1066 97.8693 29.7333 97.2559 29.28L97.3359 30.48H94.2959L94.1359 23.6H96.7359C96.8159 24.4 97.1359 25.1333 97.6959 25.8C98.2559 26.4666 98.9893 27 99.8959 27.4C100.803 27.7733 101.816 27.96 102.936 27.96C103.389 27.96 103.816 27.8933 104.216 27.76C104.643 27.6266 104.989 27.4133 105.256 27.12C105.549 26.8 105.696 26.4133 105.696 25.96C105.696 25.4533 105.509 25.04 105.136 24.72C104.789 24.4 104.269 24.0933 103.576 23.8C102.909 23.5066 102.069 23.1733 101.056 22.8C100.229 22.48 99.3893 22.1466 98.5359 21.8C97.7093 21.4533 96.9359 21.04 96.2159 20.56C95.5226 20.0533 94.9626 19.44 94.5359 18.72C94.1093 17.9733 93.8959 17.0666 93.8959 16C93.8959 15.2266 94.0426 14.4666 94.3359 13.7199C94.6293 12.9466 95.0826 12.2533 95.6959 11.64C96.3093 11 97.0826 10.4933 98.0159 10.1199C98.9759 9.74662 100.109 9.55995 101.416 9.55995C102.136 9.55995 102.949 9.67995 103.856 9.91995C104.789 10.1333 105.576 10.4666 106.216 10.92V9.75995H109.256V16.84H106.656C106.496 15.9066 106.163 15.1066 105.656 14.44C105.176 13.7733 104.549 13.2666 103.776 12.92C103.003 12.5466 102.136 12.36 101.176 12.36C100.509 12.36 99.8959 12.52 99.3359 12.84C98.8026 13.16 98.5359 13.7066 98.5359 14.48C98.5359 15.0933 98.7493 15.5866 99.1759 15.96C99.6026 16.3066 100.189 16.6 100.936 16.84C101.683 17.08 102.509 17.36 103.416 17.68C104.776 18.1333 105.976 18.6666 107.016 19.28C108.083 19.8933 108.923 20.64 109.536 21.52C110.149 22.3733 110.456 23.4266 110.456 24.68C110.456 26.0666 110.109 27.2133 109.416 28.12C108.723 29.0266 107.816 29.7066 106.696 30.16C105.603 30.6133 104.429 30.84 103.176 30.84ZM121.31 30.84C120.51 30.84 119.737 30.7466 118.99 30.56C118.243 30.3733 117.577 30.0266 116.99 29.52C116.403 28.9866 115.937 28.2133 115.59 27.2C115.243 26.1866 115.07 24.84 115.07 23.16L115.15 13.52H112.43V10.2C113.257 10.1733 114.057 9.89328 114.83 9.35995C115.603 8.82662 116.257 8.13328 116.79 7.27995C117.35 6.42662 117.723 5.53328 117.91 4.59995H120.87L120.83 10.2H125.91V13.28L120.83 13.4L120.79 23.24C120.79 23.8533 120.843 24.4666 120.95 25.08C121.083 25.6666 121.323 26.16 121.67 26.56C122.017 26.9333 122.523 27.12 123.19 27.12C123.563 27.12 124.07 26.9866 124.71 26.72C125.377 26.4533 126.083 25.7866 126.83 24.72L128.75 26.52C128.03 27.5866 127.283 28.4133 126.51 29C125.737 29.5866 124.99 30.0133 124.27 30.28C123.577 30.5466 122.963 30.7066 122.43 30.76C121.897 30.8133 121.523 30.84 121.31 30.84ZM139.393 30.84C137.447 30.84 135.727 30.4133 134.233 29.56C132.74 28.68 131.58 27.4533 130.753 25.88C129.927 24.28 129.513 22.4 129.513 20.24C129.513 18.3733 129.927 16.6266 130.753 15C131.58 13.3733 132.74 12.0666 134.233 11.08C135.753 10.0666 137.513 9.55995 139.513 9.55995C140.633 9.55995 141.727 9.71995 142.793 10.04C143.86 10.3333 144.82 10.8533 145.673 11.5999C146.553 12.3466 147.247 13.36 147.753 14.64C148.287 15.92 148.54 17.52 148.513 19.44L135.393 19.68C135.393 21.12 135.567 22.4133 135.913 23.56C136.287 24.7066 136.887 25.6133 137.713 26.28C138.54 26.9466 139.647 27.28 141.033 27.28C141.567 27.28 142.167 27.1866 142.833 27C143.527 26.8133 144.22 26.5066 144.913 26.08C145.633 25.6266 146.3 25.0266 146.913 24.28L148.713 25.96C147.753 27.32 146.727 28.36 145.633 29.08C144.54 29.7733 143.447 30.24 142.353 30.48C141.287 30.72 140.3 30.84 139.393 30.84ZM135.633 16.88H142.993C142.967 15.76 142.807 14.88 142.513 14.24C142.247 13.5733 141.873 13.0933 141.393 12.7999C140.913 12.5066 140.353 12.36 139.713 12.36C138.54 12.36 137.62 12.7866 136.953 13.6399C136.287 14.4666 135.847 15.5466 135.633 16.88ZM151.437 27.6C152.184 27.6 152.717 27.4533 153.037 27.16C153.357 26.8666 153.557 26.4533 153.637 25.92C153.744 25.36 153.797 24.7333 153.797 24.04V17.32C153.797 16.84 153.81 16.3066 153.837 15.72C153.864 15.1066 153.904 14.5066 153.957 13.92C153.53 13.9466 153.024 13.9733 152.437 13.9999C151.877 13.9999 151.45 14.0133 151.157 14.04V11H152.757C153.797 11 154.744 10.8666 155.597 10.6C156.477 10.3333 157.05 10.0666 157.317 9.79995H159.277C159.33 10.0666 159.37 10.5733 159.397 11.3199C159.424 12.04 159.437 12.68 159.437 13.24C160.157 12.36 160.837 11.6533 161.477 11.12C162.117 10.5866 162.744 10.2 163.357 9.95995C163.997 9.69328 164.637 9.55995 165.277 9.55995C166.21 9.55995 167.024 9.82662 167.717 10.36C168.41 10.8666 168.757 11.7066 168.757 12.88C168.757 13.28 168.664 13.7066 168.477 14.16C168.29 14.5866 167.997 14.9466 167.597 15.24C167.197 15.5333 166.65 15.68 165.957 15.68C165.424 15.68 164.877 15.52 164.317 15.1999C163.757 14.88 163.437 14.2666 163.357 13.3599C162.824 13.3599 162.29 13.5866 161.757 14.04C161.224 14.4666 160.744 14.9866 160.317 15.6C159.917 16.1866 159.637 16.7333 159.477 17.24V23.76C159.477 24.1333 159.464 24.6666 159.437 25.36C159.41 26.0266 159.37 26.6666 159.317 27.28C159.744 27.2266 160.21 27.2 160.717 27.2C161.25 27.1733 161.65 27.16 161.917 27.16V30.2H151.437V27.6ZM179.699 30.84C178.553 30.84 177.433 30.6933 176.339 30.4C175.246 30.1066 174.393 29.7333 173.779 29.28L173.859 30.48H170.819L170.659 23.6H173.259C173.339 24.4 173.659 25.1333 174.219 25.8C174.779 26.4666 175.513 27 176.419 27.4C177.326 27.7733 178.339 27.96 179.459 27.96C179.913 27.96 180.339 27.8933 180.739 27.76C181.166 27.6266 181.513 27.4133 181.779 27.12C182.073 26.8 182.219 26.4133 182.219 25.96C182.219 25.4533 182.033 25.04 181.659 24.72C181.313 24.4 180.793 24.0933 180.099 23.8C179.433 23.5066 178.593 23.1733 177.579 22.8C176.753 22.48 175.913 22.1466 175.059 21.8C174.233 21.4533 173.459 21.04 172.739 20.56C172.046 20.0533 171.486 19.44 171.059 18.72C170.633 17.9733 170.419 17.0666 170.419 16C170.419 15.2266 170.566 14.4666 170.859 13.7199C171.153 12.9466 171.606 12.2533 172.219 11.64C172.833 11 173.606 10.4933 174.539 10.1199C175.499 9.74662 176.633 9.55995 177.939 9.55995C178.659 9.55995 179.473 9.67995 180.379 9.91995C181.313 10.1333 182.099 10.4666 182.739 10.92V9.75995H185.779V16.84H183.179C183.019 15.9066 182.686 15.1066 182.179 14.44C181.699 13.7733 181.073 13.2666 180.299 12.92C179.526 12.5466 178.659 12.36 177.699 12.36C177.033 12.36 176.419 12.52 175.859 12.84C175.326 13.16 175.059 13.7066 175.059 14.48C175.059 15.0933 175.273 15.5866 175.699 15.96C176.126 16.3066 176.713 16.6 177.459 16.84C178.206 17.08 179.033 17.36 179.939 17.68C181.299 18.1333 182.499 18.6666 183.539 19.28C184.606 19.8933 185.446 20.64 186.059 21.52C186.673 22.3733 186.979 23.4266 186.979 24.68C186.979 26.0666 186.633 27.2133 185.939 28.12C185.246 29.0266 184.339 29.7066 183.219 30.16C182.126 30.6133 180.953 30.84 179.699 30.84Z" fill="#1C1C1C"/>
</svg>
