<svg width="589" height="98" viewBox="0 0 589 98" fill="none" xmlns="http://www.w3.org/2000/svg">
<path d="M-1.89797e-05 95.0272V86.7202C1.92989 86.6363 3.52417 86.3846 4.78281 85.965C6.12536 85.5455 7.13227 84.5805 7.80354 83.0702C8.55873 81.5598 8.93632 79.1264 8.93632 75.77V27.5642C8.93632 25.2986 8.97827 23.117 9.06218 21.0193C9.23 18.9215 9.35586 17.3273 9.43977 16.2364C8.09722 16.3203 6.41904 16.4043 4.40522 16.4882C2.39139 16.4882 0.922983 16.5301 -1.89797e-05 16.614V6.9225C5.95754 6.83859 11.9151 6.79664 17.8727 6.79664C23.8302 6.79664 29.7878 6.75469 35.7453 6.67078C43.1293 6.58687 49.5484 7.42596 55.0025 9.18805C60.4566 10.9501 64.6521 13.8031 67.5889 17.7468C70.5257 21.6905 71.9102 27.0188 71.7424 33.7315C71.6585 37.2557 70.7774 40.6121 69.0993 43.8006C67.505 46.9892 65.0716 49.8001 61.7991 52.2335C58.6106 54.6669 54.541 56.5968 49.5904 58.0232C51.1846 58.6945 52.7369 59.7853 54.2473 61.2957C55.8416 62.8061 57.1841 64.4003 58.275 66.0785L64.1906 74.889C66.0366 77.7419 67.6728 80.0075 69.0993 81.6857C70.5257 83.3638 71.9522 84.6225 73.3786 85.4616C74.8051 86.2167 76.4413 86.6363 78.2873 86.7202V95.0272H57.5198C56.0094 93.9364 54.499 92.3841 52.9887 90.3703C51.5622 88.2725 50.0099 85.8811 48.3317 83.196L39.0178 68.0924C37.927 66.4142 36.962 64.9877 36.1229 63.813C35.3677 62.6382 34.5706 61.6313 33.7315 60.7922C32.389 60.7922 31.2562 60.7922 30.3332 60.7922C29.4102 60.7922 28.3613 60.7922 27.1866 60.7922V74.2597C27.1866 76.6091 27.1446 78.8327 27.0607 80.9305C26.9768 83.0282 26.8509 84.6225 26.6831 85.7133C27.6061 85.6294 28.7809 85.5874 30.2073 85.5874C31.6338 85.5035 33.0183 85.4616 34.3608 85.4616C35.7873 85.3777 36.7942 85.3357 37.3816 85.3357V95.0272H-1.89797e-05ZM33.228 51.73C37.927 51.73 41.7029 51.0588 44.5558 49.7162C47.4087 48.2898 49.4645 46.192 50.7231 43.423C52.0657 40.5701 52.7369 37.004 52.7369 32.7246C52.7369 28.697 52.1076 25.5504 50.849 23.2848C49.5904 20.9353 47.9961 19.2152 46.0662 18.1244C44.2202 16.9497 42.3322 16.2364 40.4023 15.9847C38.4724 15.6491 36.8781 15.4812 35.6195 15.4812C33.8574 15.4812 32.347 15.691 31.0884 16.1106C29.8297 16.5301 28.8648 17.4531 28.1935 18.8796C27.5222 20.306 27.1866 22.4877 27.1866 25.4245V51.2266C28.1096 51.3105 29.0745 51.4364 30.0814 51.6042C31.0884 51.6881 32.1372 51.73 33.228 51.73ZM114.269 97.041C108.227 97.041 102.773 95.7405 97.9063 93.1393C93.0396 90.5381 89.1798 86.8461 86.3269 82.0632C83.5579 77.1965 82.1734 71.4907 82.1734 64.9458C82.1734 57.9813 83.5998 51.8979 86.4527 46.6955C89.3896 41.4092 93.2494 37.3396 98.0322 34.4867C102.899 31.5499 108.185 30.0815 113.891 30.0815C119.933 30.0815 125.345 31.3821 130.127 33.9832C134.91 36.5844 138.686 40.3184 141.455 45.1851C144.224 49.968 145.609 55.7157 145.609 62.4285C145.609 69.4769 144.266 75.6022 141.581 80.8046C138.896 86.007 135.204 90.0346 130.505 92.8875C125.806 95.6565 120.394 97.041 114.269 97.041ZM114.772 88.1047C118.128 88.0208 120.646 86.8461 122.324 84.5805C124.086 82.315 125.303 79.4621 125.974 76.0218C126.645 72.5815 126.981 69.0993 126.981 65.5751C126.981 62.4704 126.729 59.3238 126.226 56.1353C125.806 52.9467 125.093 50.0519 124.086 47.4507C123.079 44.8495 121.695 42.7518 119.933 41.1575C118.254 39.5632 116.157 38.808 113.639 38.8919C110.367 38.9758 107.766 40.1506 105.836 42.4161C103.99 44.6817 102.647 47.5346 101.808 50.9749C101.053 54.3312 100.675 57.8554 100.675 61.5474C100.675 65.8268 101.137 70.0223 102.06 74.1338C102.983 78.2454 104.451 81.6437 106.465 84.3288C108.563 86.93 111.332 88.1886 114.772 88.1047ZM189.712 95.0272C189.544 93.8525 189.419 92.8875 189.335 92.1324C189.335 91.2933 189.293 90.3283 189.209 89.2375C186.356 92.0904 183.335 94.1042 180.147 95.2789C176.958 96.4537 173.728 97.041 170.455 97.041C165.085 97.041 160.889 95.4468 157.869 92.2582C154.848 89.0697 153.338 85.084 153.338 80.3011C153.338 76.2735 154.344 72.8332 156.358 69.9803C158.456 67.1274 161.183 64.8199 164.539 63.0578C167.98 61.2118 171.756 59.8273 175.867 58.9043C180.063 57.8974 184.258 57.31 188.454 57.1422V50.5973C188.454 48.4156 188.16 46.4438 187.573 44.6817C187.069 42.9196 186.146 41.5351 184.804 40.5282C183.545 39.5212 181.741 39.0597 179.391 39.1437C177.797 39.2276 176.245 39.5632 174.734 40.1506C173.224 40.7379 171.923 41.577 170.833 42.6678C171.504 43.423 171.923 44.2621 172.091 45.1851C172.259 46.0242 172.343 46.7794 172.343 47.4507C172.343 49.1289 171.672 50.891 170.329 52.737C168.987 54.4991 166.847 55.3381 163.91 55.2542C161.393 55.1703 159.463 54.2893 158.12 52.6111C156.778 50.9329 156.107 48.961 156.107 46.6955C156.107 43.3391 157.281 40.4443 159.631 38.0109C162.064 35.4936 165.295 33.5637 169.322 32.2211C173.35 30.7947 177.797 30.0815 182.664 30.0815C190.048 30.0815 195.754 32.0114 199.781 35.8712C203.893 39.6471 205.949 45.7305 205.949 54.1215C205.949 56.9744 205.949 59.4077 205.949 61.4216C205.949 63.4354 205.907 65.4492 205.823 67.463C205.823 69.4769 205.823 71.9102 205.823 74.7631C205.823 75.9379 205.781 77.6161 205.697 79.7977C205.613 81.8954 205.487 83.9092 205.319 85.8392C206.746 85.6713 208.256 85.5874 209.85 85.5874C211.445 85.5035 212.661 85.4616 213.501 85.4616V95.0272H189.712ZM188.328 66.0785C185.978 66.3303 183.755 66.7498 181.657 67.3372C179.559 67.9245 177.713 68.7217 176.119 69.7286C174.609 70.7355 173.392 71.9522 172.469 73.3786C171.63 74.8051 171.21 76.3994 171.21 78.1615C171.294 80.5109 172.049 82.1891 173.476 83.196C174.902 84.2029 176.538 84.7064 178.384 84.7064C180.314 84.7064 182.118 84.2868 183.797 83.4477C185.475 82.6087 186.985 81.5178 188.328 80.1753C188.328 79.3362 188.328 78.5391 188.328 77.7839C188.328 76.9448 188.328 76.1057 188.328 75.2666C188.328 73.7562 188.328 72.2459 188.328 70.7355C188.328 69.1412 188.328 67.5889 188.328 66.0785ZM245.019 97.041C239.984 97.041 235.537 95.7405 231.677 93.1393C227.901 90.5381 224.922 86.8461 222.741 82.0632C220.643 77.2804 219.594 71.6585 219.594 65.1975C219.594 58.4008 220.895 52.3594 223.496 47.0731C226.097 41.7868 229.747 37.6333 234.446 34.6126C239.145 31.5918 244.599 30.0815 250.808 30.0815C253.074 30.0815 255.088 30.3332 256.85 30.8366C258.696 31.2562 260.416 31.7596 262.01 32.347V24.04C262.01 22.8653 262.052 21.1871 262.136 19.0054C262.22 16.8238 262.346 14.81 262.514 12.964C261.171 13.0479 259.577 13.1318 257.731 13.2157C255.885 13.2996 254.5 13.3416 253.577 13.3416V3.77591C257.521 3.77591 260.794 3.56614 263.395 3.14659C266.08 2.72704 268.178 2.22359 269.688 1.63622C271.282 1.04886 272.373 0.503447 272.96 -1.1861e-05H279.757V74.7631C279.757 75.9379 279.715 77.6161 279.631 79.7977C279.547 81.8954 279.421 83.9092 279.254 85.8392C280.68 85.6713 282.19 85.5874 283.785 85.5874C285.379 85.5035 286.596 85.4616 287.435 85.4616V95.0272H263.521C263.437 94.1042 263.311 93.1393 263.143 92.1324C263.059 91.1254 262.933 90.1605 262.765 89.2375C259.996 92.0904 257.143 94.1042 254.207 95.2789C251.27 96.4537 248.207 97.041 245.019 97.041ZM251.564 85.5874C253.745 85.5874 255.759 85.042 257.605 83.9512C259.451 82.7765 260.919 81.3081 262.01 79.546C262.01 78.2873 262.01 77.0287 262.01 75.77C262.01 74.5114 262.01 73.2528 262.01 71.9941V41.7868C261.171 41.1155 259.912 40.5701 258.234 40.1506C256.556 39.6471 254.836 39.3954 253.074 39.3954C249.214 39.4793 246.193 40.696 244.012 43.0454C241.83 45.3949 240.278 48.3737 239.355 51.9818C238.516 55.5899 238.096 59.3658 238.096 63.3095C238.096 66.8337 238.516 70.3159 239.355 73.7562C240.278 77.1965 241.704 80.0494 243.634 82.315C245.648 84.4966 248.291 85.5874 251.564 85.5874ZM324.653 97.041C321.045 97.041 317.521 96.5795 314.08 95.6565C310.64 94.7335 307.955 93.5588 306.025 92.1324L306.277 95.9083H296.711L296.208 74.2597H304.389C304.641 76.777 305.648 79.0845 307.41 81.1822C309.172 83.2799 311.479 84.9581 314.332 86.2168C317.185 87.3915 320.374 87.9788 323.898 87.9788C325.324 87.9788 326.667 87.7691 327.926 87.3495C329.268 86.93 330.359 86.2587 331.198 85.3357C332.121 84.3288 332.582 83.1121 332.582 81.6857C332.582 80.0914 331.995 78.7908 330.82 77.7839C329.73 76.777 328.093 75.812 325.912 74.889C323.814 73.966 321.171 72.9171 317.982 71.7424C315.381 70.7355 312.738 69.6866 310.053 68.5958C307.452 67.505 305.018 66.2044 302.753 64.694C300.571 63.0997 298.809 61.1698 297.466 58.9043C296.124 56.5548 295.453 53.7019 295.453 50.3455C295.453 47.9122 295.914 45.5208 296.837 43.1713C297.76 40.7379 299.187 38.5563 301.117 36.6264C303.046 34.6126 305.48 33.0183 308.417 31.8436C311.437 30.6688 315.003 30.0815 319.115 30.0815C321.381 30.0815 323.94 30.459 326.793 31.2142C329.73 31.8855 332.205 32.9344 334.219 34.3608V30.7108H343.784V52.9887H335.603C335.1 50.0519 334.051 47.5346 332.457 45.4369C330.946 43.3391 328.974 41.7448 326.541 40.654C324.108 39.4793 321.381 38.8919 318.36 38.8919C316.262 38.8919 314.332 39.3954 312.57 40.4023C310.892 41.4092 310.053 43.1293 310.053 45.5627C310.053 47.4926 310.724 49.045 312.067 50.2197C313.409 51.3105 315.255 52.2335 317.605 52.9887C319.954 53.7439 322.555 54.6249 325.408 55.6318C329.688 57.0583 333.464 58.7365 336.736 60.6664C340.092 62.5963 342.736 64.9458 344.665 67.7148C346.595 70.3999 347.56 73.7143 347.56 77.658C347.56 82.0213 346.469 85.6294 344.288 88.4823C342.106 91.3352 339.253 93.4749 335.729 94.9014C332.289 96.3278 328.597 97.041 324.653 97.041ZM381.714 97.041C379.196 97.041 376.763 96.7474 374.414 96.16C372.064 95.5726 369.966 94.4818 368.12 92.8875C366.274 91.2094 364.806 88.776 363.715 85.5874C362.624 82.3989 362.079 78.1615 362.079 72.8752L362.331 42.542H353.772V32.0953C356.373 32.0114 358.89 31.1303 361.324 29.4521C363.757 27.774 365.813 25.5923 367.491 22.9072C369.253 20.2221 370.428 17.4112 371.015 14.4743H380.329L380.203 32.0953H396.188V41.7868L380.203 42.1644L380.077 73.1269C380.077 75.0568 380.245 76.9867 380.581 78.9166C381 80.7626 381.756 82.315 382.846 83.5736C383.937 84.7483 385.532 85.3357 387.629 85.3357C388.804 85.3357 390.398 84.9162 392.412 84.0771C394.51 83.238 396.733 81.1402 399.083 77.7839L405.124 83.4477C402.859 86.8041 400.509 89.4053 398.076 91.2513C395.643 93.0973 393.293 94.4399 391.028 95.2789C388.846 96.118 386.916 96.6215 385.238 96.7893C383.56 96.9571 382.385 97.041 381.714 97.041ZM438.615 97.041C432.49 97.041 427.077 95.6985 422.378 93.0134C417.68 90.2444 414.03 86.3846 411.428 81.4339C408.827 76.3994 407.527 70.4838 407.527 63.6871C407.527 57.8135 408.827 52.3174 411.428 47.1989C414.03 42.0805 417.68 37.9689 422.378 34.8643C427.161 31.6757 432.699 30.0815 438.993 30.0815C442.517 30.0815 445.957 30.5849 449.313 31.5918C452.67 32.5148 455.69 34.1511 458.376 36.5005C461.145 38.85 463.326 42.0385 464.92 46.0662C466.599 50.0938 467.396 55.1284 467.312 61.1698L426.029 61.925C426.029 66.4561 426.574 70.5257 427.665 74.1338C428.839 77.7419 430.727 80.5948 433.329 82.6926C435.93 84.7903 439.412 85.8392 443.775 85.8392C445.454 85.8392 447.341 85.5455 449.439 84.9581C451.621 84.3707 453.802 83.4058 455.984 82.0632C458.25 80.6368 460.347 78.7488 462.277 76.3994L467.941 81.6857C464.92 85.965 461.69 89.2375 458.25 91.503C454.809 93.6847 451.369 95.1531 447.929 95.9083C444.572 96.6635 441.468 97.041 438.615 97.041ZM426.784 53.1146H449.943C449.859 49.5904 449.355 46.8214 448.432 44.8075C447.593 42.7098 446.418 41.1994 444.908 40.2764C443.398 39.3534 441.636 38.8919 439.622 38.8919C435.93 38.8919 433.035 40.2345 430.937 42.9196C428.839 45.5208 427.455 48.9191 426.784 53.1146ZM476.511 86.8461C478.86 86.8461 480.538 86.3846 481.545 85.4616C482.552 84.5386 483.182 83.238 483.433 81.5598C483.769 79.7977 483.937 77.8258 483.937 75.6442V54.4991C483.937 52.9887 483.979 51.3105 484.063 49.4645C484.147 47.5346 484.272 45.6466 484.44 43.8006C483.098 43.8845 481.503 43.9684 479.657 44.0523C477.895 44.0523 476.553 44.0943 475.63 44.1782V34.6126H480.664C483.937 34.6126 486.916 34.193 489.601 33.3539C492.37 32.5148 494.174 31.6757 495.013 30.8366H501.18C501.348 31.6757 501.474 33.27 501.558 35.6195C501.642 37.885 501.684 39.8988 501.684 41.6609C503.949 38.8919 506.089 36.6683 508.103 34.9901C510.116 33.312 512.088 32.0953 514.018 31.3401C516.032 30.501 518.046 30.0815 520.06 30.0815C522.996 30.0815 525.556 30.9206 527.737 32.5987C529.919 34.193 531.01 36.8362 531.01 40.5282C531.01 41.7868 530.716 43.1293 530.129 44.5558C529.541 45.8984 528.618 47.0311 527.36 47.9541C526.101 48.8771 524.381 49.3386 522.199 49.3386C520.521 49.3386 518.801 48.8352 517.039 47.8283C515.277 46.8214 514.27 44.8914 514.018 42.0385C512.34 42.0385 510.662 42.7518 508.984 44.1782C507.305 45.5208 505.795 47.157 504.453 49.0869C503.194 50.9329 502.313 52.653 501.809 54.2473V74.7631C501.809 75.9379 501.767 77.6161 501.684 79.7977C501.6 81.8954 501.474 83.9092 501.306 85.8392C502.648 85.6713 504.117 85.5874 505.711 85.5874C507.389 85.5035 508.648 85.4616 509.487 85.4616V95.0272H476.511V86.8461ZM565.441 97.041C561.833 97.041 558.309 96.5795 554.869 95.6565C551.429 94.7335 548.744 93.5588 546.814 92.1324L547.065 95.9083H537.5L536.996 74.2597H545.177C545.429 76.777 546.436 79.0845 548.198 81.1822C549.96 83.2799 552.268 84.9581 555.121 86.2168C557.974 87.3915 561.162 87.9788 564.686 87.9788C566.113 87.9788 567.455 87.7691 568.714 87.3495C570.056 86.93 571.147 86.2587 571.986 85.3357C572.909 84.3288 573.371 83.1121 573.371 81.6857C573.371 80.0914 572.784 78.7908 571.609 77.7839C570.518 76.777 568.882 75.812 566.7 74.889C564.602 73.966 561.959 72.9171 558.771 71.7424C556.169 70.7355 553.526 69.6866 550.841 68.5958C548.24 67.505 545.807 66.2044 543.541 64.694C541.359 63.0997 539.597 61.1698 538.255 58.9043C536.912 56.5548 536.241 53.7019 536.241 50.3455C536.241 47.9122 536.703 45.5208 537.626 43.1713C538.549 40.7379 539.975 38.5563 541.905 36.6264C543.835 34.6126 546.268 33.0183 549.205 31.8436C552.226 30.6688 555.792 30.0815 559.903 30.0815C562.169 30.0815 564.728 30.459 567.581 31.2142C570.518 31.8855 572.993 32.9344 575.007 34.3608V30.7108H584.573V52.9887H576.392C575.888 50.0519 574.839 47.5346 573.245 45.4369C571.735 43.3391 569.763 41.7448 567.329 40.654C564.896 39.4793 562.169 38.8919 559.148 38.8919C557.051 38.8919 555.121 39.3954 553.359 40.4023C551.68 41.4092 550.841 43.1293 550.841 45.5627C550.841 47.4926 551.513 49.045 552.855 50.2197C554.198 51.3105 556.044 52.2335 558.393 52.9887C560.743 53.7439 563.344 54.6249 566.197 55.6318C570.476 57.0583 574.252 58.7365 577.524 60.6664C580.881 62.5963 583.524 64.9458 585.454 67.7148C587.384 70.3999 588.349 73.7143 588.349 77.658C588.349 82.0213 587.258 85.6294 585.076 88.4823C582.895 91.3352 580.042 93.4749 576.517 94.9014C573.077 96.3278 569.385 97.041 565.441 97.041Z" fill="#F7F7F7"/>
</svg>
